<svg width="177" height="123" fill="none" xmlns="http://www.w3.org/2000/svg"><rect width="78.759" height="106.132" rx="4" transform="rotate(-15.019 77.66 10.237) skewX(-.038)" fill="#F1F3F7"/><rect width="69.604" height="7.085" rx="1.887" transform="rotate(-15.019 370.948 -46.376) skewX(-.037)" fill="#F6F7FA"/><rect width="57.376" height="7.085" rx="1.887" transform="rotate(-15.019 431.867 -54.367) skewX(-.037)" fill="#F6F7FA"/><rect width="41.386" height="7.085" rx="1.887" transform="rotate(-15.019 331.529 -41.208) skewX(-.037)" fill="#F6F7FA"/><path d="M1.034 24.339a4.003 4.003 0 0 1 2.83-4.9L72.446 1.036a3.997 3.997 0 0 1 4.898 2.827l14.838 55.451-76.31 20.475L1.033 24.339Z" fill="#F6F7FA"/><mask id="a" style="mask-type:luminance" maskUnits="userSpaceOnUse" x="0" y="0" width="93" height="80"><path d="M1.034 24.339a4.003 4.003 0 0 1 2.83-4.9L72.446 1.036a3.997 3.997 0 0 1 4.898 2.827l14.838 55.451-76.31 20.475L1.033 24.339Z" fill="#fff"/></mask><rect width="78.759" height="106.132" rx="4" transform="rotate(15.019 50.341 381.925) skewX(.037)" fill="#F1F3F7"/><rect width="69.604" height="7.085" rx="1.887" transform="rotate(15.019 -247.645 360.989) skewX(.037)" fill="#F6F7FA"/><rect width="57.376" height="7.085" rx="1.887" transform="rotate(15.019 -308.564 352.998) skewX(.037)" fill="#F6F7FA"/><rect width="41.386" height="7.085" rx="1.887" transform="rotate(15.019 -208.227 366.16) skewX(.037)" fill="#F6F7FA"/><path d="M99.655 3.865a3.997 3.997 0 0 1 4.898-2.828l68.584 18.401a4.004 4.004 0 0 1 2.829 4.9L161.127 79.79l-76.31-20.474L99.654 3.865Z" fill="#F6F7FA"/><mask id="b" style="mask-type:luminance" maskUnits="userSpaceOnUse" x="84" y="0" width="93" height="80"><path d="M99.655 3.865a3.997 3.997 0 0 1 4.898-2.828l68.584 18.401a4.004 4.004 0 0 1 2.829 4.9L161.127 79.79l-76.31-20.474L99.654 3.865Z" fill="#fff"/></mask></svg>
