<svg xmlns="http://www.w3.org/2000/svg" width="84" height="25" viewBox="0 0 84 25">
    <g fill="none" fill-rule="evenodd">
        <g fill="#FFF">
            <path d="M256.321 81.478c.02.133.029.241.029.326 0 .085-.106.166-.316.241-.709.208-1.418.34-2.127.397-.708.057-1.312.085-1.81.085-1.647 0-2.825-.345-3.534-1.035-.709-.69-1.063-1.706-1.063-3.048v-8.081h-2.012c-.21 0-.344-.052-.402-.156-.057-.104-.086-.232-.086-.383v-1.531c0-.189.024-.317.072-.383.048-.066.177-.127.388-.184l2.126-.482.201-2.666c.02-.226.082-.387.187-.482.105-.094.263-.17.474-.226l2.644-.851c.172-.038.31-.019.416.057.106.075.158.226.158.453v3.8h3.16c.212 0 .34.042.389.128.048.085.072.203.072.354v2.013c0 .19-.02.326-.058.411-.038.085-.172.128-.402.128h-3.16v7.202c0 .548.138.926.416 1.134.278.208.694.312 1.25.312.134 0 .297-.01.488-.028l.59-.057.588-.056c.192-.02.355-.038.489-.057.306-.057.47.038.488.283l.345 2.382zm15.447-1.106c0 .246-.033.454-.1.624-.067.17-.235.331-.503.482-.44.208-.915.378-1.422.51-.508.133-1.025.237-1.552.313-.527.075-1.058.132-1.595.17-.536.038-1.044.056-1.523.056-1.302 0-2.38-.122-3.232-.368-.853-.246-1.537-.581-2.055-1.007-.517-.425-.88-.926-1.092-1.503-.21-.576-.316-1.195-.316-1.857 0-.737.125-1.413.374-2.027.249-.615.623-1.149 1.12-1.602.499-.454 1.126-.809 1.883-1.064.756-.255 1.652-.383 2.686-.383h3.16v-.453c0-.265-.028-.52-.085-.766-.058-.246-.177-.458-.36-.638-.181-.18-.435-.326-.76-.44-.327-.113-.758-.17-1.294-.17-.287 0-.613.015-.977.043-.364.028-.728.066-1.092.113-.364.048-.718.104-1.063.17-.345.067-.651.138-.92.213-.248.057-.42.057-.517 0-.095-.056-.162-.18-.2-.368l-.46-1.985c-.058-.208-.063-.355-.015-.44.048-.085.149-.156.302-.212.862-.303 1.767-.52 2.715-.653.948-.132 1.892-.198 2.83-.198 2.089 0 3.621.44 4.598 1.318.977.88 1.465 2.18 1.465 3.9v8.222zm-4.097-4.905h-2.27c-.268 0-.555.019-.862.057-.306.037-.589.127-.848.269-.258.142-.474.345-.646.61-.172.264-.259.623-.259 1.077 0 .662.225 1.125.676 1.39.45.264 1.058.397 1.824.397.115 0 .268-.005.46-.015.191-.01.397-.028.618-.056.22-.029.445-.067.675-.114.23-.047.44-.108.632-.184v-3.431zm11.189 12.051c0 .208-.034.34-.1.397-.068.057-.235.085-.504.085h-2.988c-.21 0-.364-.028-.46-.085-.095-.057-.143-.19-.143-.397V69.03c0-.208.033-.373.1-.496s.225-.25.474-.383c.92-.416 1.95-.709 3.09-.879 1.139-.17 2.226-.255 3.26-.255 1.36 0 2.505.203 3.434.61.93.406 1.676.954 2.241 1.644.565.69.972 1.508 1.222 2.453.249.945.373 1.957.373 3.034 0 1.059-.134 2.056-.402 2.992-.268.935-.68 1.753-1.236 2.452-.555.7-1.26 1.253-2.112 1.66-.852.405-1.853.609-3.002.609-.575 0-1.107-.024-1.595-.071-.489-.047-1.04-.137-1.652-.27v5.388zm5.632-12.845c0-.775-.077-1.427-.23-1.957-.154-.529-.379-.954-.676-1.276-.296-.32-.66-.548-1.091-.68-.431-.132-.915-.199-1.452-.199-.268 0-.617.029-1.048.086-.431.056-.81.132-1.135.226v7.741c.498.133.943.218 1.336.256.393.037.742.056 1.049.056.957 0 1.738-.321 2.341-.964.604-.643.906-1.739.906-3.289zm12.642 5.33c0 .72-.253 1.324-.761 1.816-.508.491-1.135.737-1.882.737-.364 0-.709-.066-1.035-.199-.325-.132-.608-.312-.847-.538-.24-.227-.431-.497-.575-.809-.144-.312-.215-.647-.215-1.006 0-.36.071-.695.215-1.007.144-.312.335-.581.575-.808.24-.227.522-.406.847-.539.326-.132.67-.198 1.035-.198.747 0 1.374.246 1.882.737.508.492.761 1.096.761 1.815zm16.264.37c0 .245-.034.453-.101.623-.067.17-.235.331-.503.482-.44.208-.914.378-1.422.51-.508.133-1.025.237-1.552.313-.527.075-1.058.132-1.594.17-.537.038-1.044.056-1.523.056-1.303 0-2.38-.122-3.233-.368-.852-.246-1.537-.581-2.054-1.007-.518-.425-.881-.926-1.092-1.503-.21-.576-.316-1.195-.316-1.857 0-.737.124-1.413.373-2.027.25-.615.623-1.149 1.12-1.602.499-.454 1.126-.809 1.883-1.064.757-.255 1.652-.383 2.687-.383h3.16v-.453c0-.265-.029-.52-.086-.766-.057-.246-.177-.458-.36-.638-.181-.18-.435-.326-.76-.44-.326-.113-.757-.17-1.294-.17-.287 0-.613.015-.977.043-.364.028-.727.066-1.091.113-.364.048-.719.104-1.064.17-.344.067-.65.138-.919.213-.25.057-.421.057-.517 0-.096-.056-.163-.18-.201-.368l-.46-1.985c-.058-.208-.062-.355-.014-.44.047-.085.148-.156.301-.212.862-.303 1.767-.52 2.716-.653.948-.132 1.891-.198 2.83-.198 2.088 0 3.62.44 4.597 1.318.977.88 1.466 2.18 1.466 3.9v8.222zm-4.196-4.906h-2.27c-.268 0-.555.019-.861.057-.307.037-.59.127-.848.269-.259.142-.474.345-.647.61-.172.264-.258.623-.258 1.077 0 .662.225 1.125.675 1.39.45.264 1.058.397 1.825.397.115 0 .268-.005.46-.015.19-.01.397-.028.617-.056.22-.029.445-.067.675-.114.23-.047.44-.108.632-.184v-3.431zm19.654-6.011c0 .283-.043.562-.129.836-.086.274-.235.534-.445.78l-6.896 7.656.057.142h7.011c.21 0 .354.033.431.099.077.066.115.203.115.411v2.297c0 .208-.034.35-.1.425-.068.076-.206.114-.417.114h-11.178c-.479 0-.828-.11-1.048-.327-.22-.217-.33-.515-.33-.893v-.85c0-.284.042-.568.128-.851.087-.284.273-.586.56-.907l6.868-7.656-.057-.114h-6.264c-.23 0-.374-.038-.431-.113-.058-.076-.086-.218-.086-.426v-2.211c0-.36.181-.54.545-.54h10.23c.479 0 .838.072 1.077.214.24.141.36.449.36.921v.993z" transform="translate(-245 -63)"/>
        </g>
    </g>
</svg>
