<svg width="73" height="22" viewBox="0 0 73 22" fill="none" xmlns="http://www.w3.org/2000/svg">
<g id="Logos/Tap">
<path id="tap.az" fill-rule="evenodd" clip-rule="evenodd" d="M9.81931 16.0352C9.83592 16.15 9.84423 16.2443 9.84423 16.3182C9.84423 16.392 9.75285 16.4617 9.57008 16.5273C8.95534 16.7078 8.3406 16.8226 7.72585 16.8718C7.1111 16.921 6.58774 16.9456 6.15576 16.9456C4.72688 16.9456 3.70509 16.6463 3.09034 16.0475C2.47559 15.4487 2.16822 14.567 2.16822 13.4023V6.38947H0.423676C0.240913 6.38947 0.124611 6.34436 0.0747663 6.25414C0.0249218 6.16391 0 6.05318 0 5.92195V4.5932C0 4.42916 0.0207682 4.31843 0.0623052 4.26101C0.103842 4.2036 0.215991 4.15029 0.398753 4.10107L2.24299 3.68276L2.41744 1.36976C2.43406 1.17291 2.48806 1.03347 2.57944 0.951449C2.67082 0.869427 2.80789 0.803811 2.99065 0.754597L5.28348 0.0164044C5.43302 -0.0164044 5.55347 -9.81255e-09 5.64485 0.0656173C5.73624 0.131235 5.78193 0.262468 5.78193 0.45932V3.75658H8.52336C8.70612 3.75658 8.81827 3.79349 8.8598 3.86731C8.90134 3.94113 8.92211 4.04366 8.92211 4.17489V5.92195C8.92211 6.08599 8.9055 6.20492 8.87227 6.27874C8.83904 6.35256 8.72273 6.38947 8.52336 6.38947H5.78193V12.6395C5.78193 13.1152 5.90238 13.4433 6.1433 13.6238C6.38421 13.8042 6.74558 13.8944 7.22741 13.8944C7.34371 13.8944 7.48493 13.8862 7.65108 13.8698C7.81723 13.8534 7.98753 13.837 8.16199 13.8206C8.33644 13.8042 8.50674 13.7878 8.67289 13.7714C8.83904 13.755 8.98026 13.7386 9.09656 13.7222C9.3624 13.673 9.50362 13.755 9.52024 13.9683L9.81931 16.0352ZM23.2174 15.0755C23.2174 15.2888 23.1884 15.4692 23.1302 15.6169C23.0721 15.7645 22.9267 15.904 22.6941 16.0352C22.3119 16.2156 21.9007 16.3633 21.4604 16.4781C21.0201 16.5929 20.5716 16.6832 20.1146 16.7488C19.6577 16.8144 19.1967 16.8636 18.7315 16.8964C18.2663 16.9292 17.826 16.9456 17.4106 16.9456C16.2808 16.9456 15.3462 16.839 14.6069 16.6257C13.8675 16.4125 13.2735 16.1213 12.8249 15.7522C12.3763 15.3831 12.0607 14.9484 11.8779 14.4481C11.6951 13.9477 11.6038 13.4105 11.6038 12.8364C11.6038 12.1966 11.7117 11.6101 11.9277 11.077C12.1437 10.5439 12.4677 10.0804 12.8997 9.68673C13.3317 9.29303 13.8758 8.98545 14.5321 8.76399C15.1884 8.54253 15.9651 8.43181 16.8623 8.43181H19.6037V8.0381C19.6037 7.80844 19.5788 7.58699 19.529 7.37373C19.4791 7.16047 19.3753 6.97593 19.2175 6.82008C19.0596 6.66424 18.8395 6.53711 18.557 6.43868C18.2746 6.34026 17.9007 6.29105 17.4355 6.29105C17.1863 6.29105 16.9039 6.30335 16.5882 6.32796C16.2725 6.35256 15.9568 6.38537 15.6411 6.42638C15.3254 6.46739 15.0181 6.5166 14.719 6.57402C14.4199 6.63144 14.1541 6.69295 13.9215 6.75857C13.7055 6.80778 13.556 6.80778 13.4729 6.75857C13.3898 6.70935 13.3317 6.60273 13.2985 6.43868L12.8997 4.71623C12.8499 4.53579 12.8457 4.40865 12.8872 4.33483C12.9288 4.26101 13.016 4.1995 13.1489 4.15029C13.8966 3.88782 14.6816 3.69917 15.5041 3.58434C16.3265 3.46951 17.1448 3.41209 17.9589 3.41209C19.7699 3.41209 21.0991 3.79349 21.9464 4.55629C22.7938 5.3191 23.2174 6.44688 23.2174 7.93968V15.0755ZM17.6949 10.8186H19.6637V13.796C19.4976 13.8616 19.3148 13.9149 19.1154 13.956C18.9161 13.997 18.7208 14.0298 18.5298 14.0544C18.3387 14.079 18.1601 14.0954 17.9939 14.1036C17.8278 14.1118 17.6949 14.1159 17.5952 14.1159C16.9306 14.1159 16.4031 14.0011 16.0126 13.7714C15.6222 13.5417 15.427 13.1398 15.427 12.5657C15.427 12.172 15.5017 11.8603 15.6513 11.6306C15.8008 11.401 15.9877 11.2246 16.212 11.1016C16.4363 10.9786 16.6814 10.9007 16.9472 10.8678C17.2131 10.835 17.4623 10.8186 17.6949 10.8186ZM29.3682 21.2764C29.3682 21.4568 29.3391 21.5716 29.2809 21.6209C29.2228 21.6701 29.0774 21.6947 28.8448 21.6947H26.2529C26.0701 21.6947 25.9372 21.6701 25.8542 21.6209C25.7711 21.5716 25.7295 21.4568 25.7295 21.2764V5.23297C25.7295 5.05252 25.7586 4.90899 25.8168 4.80236C25.8749 4.69573 26.012 4.585 26.228 4.47017C27.0255 4.10927 27.9185 3.85501 28.9071 3.70737C29.8957 3.55973 30.8386 3.48591 31.7358 3.48591C32.9154 3.48591 33.9081 3.66226 34.714 4.01495C35.5198 4.36764 36.1677 4.84336 36.6579 5.44212C37.148 6.04088 37.5011 6.75036 37.7171 7.57058C37.9331 8.3908 38.0411 9.26842 38.0411 10.2035C38.0411 11.1221 37.9248 11.9874 37.6922 12.7994C37.4595 13.6115 37.1023 14.3209 36.6205 14.9279C36.1387 15.5349 35.5281 16.0147 34.7887 16.3674C34.0494 16.7201 33.1813 16.8964 32.1844 16.8964C31.6859 16.8964 31.2249 16.8759 30.8012 16.8349C30.3775 16.7939 29.8998 16.716 29.3682 16.6011V21.2764ZM34.0535 8.43181C34.1864 8.89113 34.2529 9.45707 34.2529 10.1297C34.2529 11.4748 33.9912 12.4262 33.4679 12.984C32.9445 13.5417 32.2674 13.8206 31.4367 13.8206C31.1709 13.8206 30.8677 13.8042 30.5271 13.7714C30.1864 13.7386 29.8002 13.6648 29.3682 13.5499V6.83239C29.6506 6.75037 29.9788 6.68475 30.3526 6.63554C30.7264 6.58632 31.0296 6.56172 31.2623 6.56172C31.7275 6.56172 32.147 6.61913 32.5208 6.73396C32.8946 6.84879 33.2103 7.04564 33.4679 7.32452C33.7254 7.60339 33.9206 7.97248 34.0535 8.43181ZM44.5582 16.3305C44.1179 16.757 43.5738 16.9702 42.9258 16.9702C42.6101 16.9702 42.311 16.9128 42.0286 16.798C41.7461 16.6832 41.5011 16.5273 41.2934 16.3305C41.0857 16.1336 40.9196 15.8999 40.795 15.6292C40.6703 15.3585 40.608 15.0673 40.608 14.7557C40.608 14.444 40.6703 14.1528 40.795 13.8821C40.9196 13.6115 41.0857 13.3777 41.2934 13.1808C41.5011 12.984 41.7461 12.8282 42.0286 12.7133C42.311 12.5985 42.6101 12.5411 42.9258 12.5411C43.5738 12.5411 44.1179 12.7543 44.5582 13.1808C44.9985 13.6074 45.2186 14.1323 45.2186 14.7557C45.2186 15.379 44.9985 15.904 44.5582 16.3305ZM59.2373 15.6169C59.2955 15.4692 59.3245 15.2888 59.3245 15.0755V7.93968C59.3245 6.44688 58.9009 5.3191 58.0535 4.55629C57.2061 3.79349 55.877 3.41209 54.066 3.41209C53.2518 3.41209 52.4336 3.46951 51.6111 3.58434C50.7887 3.69917 50.0037 3.88782 49.256 4.15029C49.1231 4.1995 49.0359 4.26101 48.9943 4.33483C48.9528 4.40865 48.9569 4.53579 49.0068 4.71623L49.4055 6.43868C49.4388 6.60273 49.4969 6.70935 49.58 6.75857C49.6631 6.80778 49.8126 6.80778 50.0286 6.75857C50.2612 6.69295 50.527 6.63144 50.8261 6.57402C51.1252 6.5166 51.4325 6.46739 51.7482 6.42638C52.0639 6.38537 52.3796 6.35256 52.6952 6.32796C53.0109 6.30335 53.2934 6.29105 53.5426 6.29105C54.0078 6.29105 54.3816 6.34026 54.6641 6.43868C54.9465 6.53711 55.1667 6.66424 55.3245 6.82008C55.4824 6.97593 55.5862 7.16047 55.6361 7.37373C55.6859 7.58699 55.7108 7.80844 55.7108 8.0381V8.43181H52.9694C52.0722 8.43181 51.2955 8.54253 50.6392 8.76399C49.9829 8.98545 49.4388 9.29303 49.0068 9.68673C48.5748 10.0804 48.2508 10.5439 48.0348 11.077C47.8188 11.6101 47.7108 12.1966 47.7108 12.8364C47.7108 13.4105 47.8022 13.9477 47.985 14.4481C48.1677 14.9484 48.4834 15.3831 48.932 15.7522C49.3806 16.1213 49.9746 16.4125 50.7139 16.6257C51.4533 16.839 52.3879 16.9456 53.5177 16.9456C53.933 16.9456 54.3733 16.9292 54.8386 16.8964C55.3038 16.8636 55.7648 16.8144 56.2217 16.7488C56.6786 16.6832 57.1272 16.5929 57.5675 16.4781C58.0078 16.3633 58.419 16.2156 58.8012 16.0352C59.0338 15.904 59.1791 15.7645 59.2373 15.6169ZM55.6859 10.8186H53.7171C53.4844 10.8186 53.2352 10.835 52.9694 10.8678C52.7036 10.9007 52.4585 10.9786 52.2342 11.1016C52.0099 11.2246 51.823 11.401 51.6734 11.6306C51.5239 11.8603 51.4491 12.172 51.4491 12.5657C51.4491 13.1398 51.6444 13.5417 52.0348 13.7714C52.4253 14.0011 52.9528 14.1159 53.6174 14.1159C53.7171 14.1159 53.85 14.1118 54.0161 14.1036C54.1823 14.0954 54.3609 14.079 54.5519 14.0544C54.743 14.0298 54.9382 13.997 55.1376 13.956C55.337 13.9149 55.5198 13.8616 55.6859 13.796V10.8186ZM72.6205 6.32796C72.6952 6.09009 72.7326 5.84813 72.7326 5.60207V4.74084C72.7326 4.33073 72.6288 4.06416 72.4211 3.94113C72.2134 3.8181 71.9019 3.75658 71.4865 3.75658H62.6142C62.2986 3.75658 62.1407 3.91242 62.1407 4.2241V6.14341C62.1407 6.32386 62.1656 6.44689 62.2155 6.5125C62.2653 6.57812 62.3899 6.61093 62.5893 6.61093H68.0223L68.0722 6.70936L62.1158 13.3531C61.8666 13.632 61.7046 13.8944 61.6298 14.1405C61.5551 14.3866 61.5177 14.6326 61.5177 14.8787V15.6169C61.5177 15.945 61.6132 16.2033 61.8043 16.392C61.9953 16.5806 62.2986 16.675 62.7139 16.675H72.4086C72.5914 16.675 72.7118 16.6422 72.77 16.5765C72.8281 16.5109 72.8572 16.3879 72.8572 16.2074V14.2143C72.8572 14.0339 72.824 13.9149 72.7575 13.8575C72.6911 13.8001 72.5665 13.7714 72.3837 13.7714H66.3027L66.2529 13.6484L72.2342 7.00463C72.4169 6.79138 72.5457 6.56582 72.6205 6.32796Z" fill="#FF4F08"/>
</g>
</svg>
